<svg id="visual" viewBox="0 0 600 900" width="600" height="900" xmlns="http://www.w3.org/2000/svg" xmlns:xlink="http://www.w3.org/1999/xlink" version="1.1"><rect width="600" height="900" fill="#FFFFFF"></rect><g><g transform="translate(222 653)"><path d="M0 -141.2L122.3 -70.6L122.3 70.6L0 141.2L-122.3 70.6L-122.3 -70.6Z" fill="#247E6B"></path></g><g transform="translate(126 185)"><path d="M0 -135L116.9 -67.5L116.9 67.5L0 135L-116.9 67.5L-116.9 -67.5Z" fill="#247E6B"></path></g><g transform="translate(474 781)"><path d="M0 -131L113.4 -65.5L113.4 65.5L0 131L-113.4 65.5L-113.4 -65.5Z" fill="#247E6B"></path></g><g transform="translate(551 481)"><path d="M0 -106L91.8 -53L91.8 53L0 106L-91.8 53L-91.8 -53Z" fill="#247E6B"></path></g></g></svg>