<svg width="240" height="217" viewBox="0 0 240 217" fill="none" xmlns="http://www.w3.org/2000/svg">
<path fill-rule="evenodd" clip-rule="evenodd" d="M197.684 -162.611C235.809 -183.449 284.209 -191.47 322.74 -171.502C363.151 -150.56 397.058 -105.703 399.894 -57.8188C402.649 -11.314 350.733 16.4999 336.485 60.542C322.698 103.158 348.703 158.84 319.328 191.218C289.978 223.57 239.644 218.07 197.684 213.538C159.006 209.361 118.663 197.637 92.6867 166.742C68.6628 138.168 80.8558 93.1383 66.7517 57.8108C50.3269 16.6707 -17.4718 -16.537 4.24939 -54.7726C28.5518 -97.5519 98.8792 -48.6937 140.408 -71.8457C171.449 -89.1506 166.513 -145.574 197.684 -162.611Z" fill="#1F6C5B"/>
</svg>
